<svg xmlns="http://www.w3.org/2000/svg" width="156.3" height="103.1"><title>logo</title><title>Layer 1</title><path fill-rule="evenodd" clip-rule="evenodd" d="M156.339 53.054c0 27.6-34.6 50.1-77.3 50.052-42.678 0-77.3-22.4-77.3-50.052 0-27.6 34.6-50 77.3-50.047 42.677 0 77.3 22.4 77.3 50.047z"/><ellipse fill-rule="evenodd" clip-rule="evenodd" fill="#E6007E" cx="77.3" cy="50.4" rx="77.3" ry="50.4"/><path d="M38.252 45.646c-3.049 0-3.8-3.1-3.6-4.841l.472-5.563c.094-1.1-.2-2.9-1.3-2.923-1.603 0-2.7 3.6-2.7 7.261v5.595h-4.621v-10.468c0-1.3-.2-2.3-1-2.263-1.477 0-2.9 3.9-2.9 7.418v5.312h-4.652l.032-10.153c0-1.5-.3-2.1-.9-2.075-.88 0-1.8 1.7-2.2 2.452l-.723-.66c1.069-2.3 2.2-4.6 5.9-4.558 1.886 0 2.4 2.1 2.5 3.772l.314.063c.849-1.9 1.7-3.8 4.1-3.835 2.075 0 3.6 1.5 4.1 4.055 1.069-2.2 1.8-4.1 4.1-4.055 1.792 0 3.6 1.1 4.1 3.018.409 1.6.3 2.9.2 4.369l-.409 4.149c-.094 1.1.5 2.3 1.2 1.98.912-.4 1.7-2.4 2.3-3.646l.974.566c-.975 2.3-2.1 5-5.2 5.03zm20.305 0c-1.572 0-3-1.1-3.3-3.363-1.037 2.2-2.4 3.4-4.5 3.363-3.835 0-6.3-3.2-6.3-7.733 0-5.5 3.9-7.7 6.1-7.732 1.823 0 3 .7 4.3 2.483v-2.138h4.275v6.475c0 2.5-.1 6.7.9 6.664.691 0 1.6-2.3 1.8-2.892l.974.534c-.912 2.2-1.5 4.3-4.4 4.339zm-6.601-13.957c-1.98 0-2.5 3.3-2.6 5.878-.094 2.8.3 6.8 2.6 6.758 2.358 0 2.9-3.9 2.8-6.758-.096-2.7-.2-5.9-2.8-5.878zm25.428 3.269c-1.226 0-2-.6-2.3-2.169-.063-.5-.5-.8-1-.754-1.509.2-2.2 3.5-2.6 5.218-.377 1.8-.4 3.9-.4 6.349v1.572h-4.809v-10.467c0-1.5-.1-2.1-1-2.075-.88 0-1.7 1.7-2 2.452l-.723-.66c1.068-2.3 1.9-4.2 5.6-4.244 1.886 0 3 1.7 3 4.023l.314.032c.597-2.1 1.8-4.3 4.4-4.338 1.477 0 3 1 3.4 2.577.345 1.4-.3 2.5-1.7 2.484zm9.68 10.688c-3.74 0-4.1-3.1-4.1-5.407l.126-5.469c0-1.5-.2-2-1.1-2.043s-1.666 1.7-2 2.452l-.724-.692c1.069-2.2 1.8-4.2 5.5-4.18 1.886 0 2.9 2 2.9 3.74v7.292c0 .6.1 2.4.8 2.42 1.132 0 2.3-2.5 2.8-3.615l.849.534c-.85 2.2-2.1 5-5 4.968zm-1.981-18.672c-1.352 0-2.5-1.1-2.5-2.483 0-1.4 1.1-2.5 2.5-2.483s2.452 1.1 2.5 2.483c.001 1.4-1.1 2.5-2.5 2.483zm23.952 18.672c-3.206 0-3.9-3-3.7-5.532l.408-5.689c.063-1 .1-2.4-1.2-2.357-2.954 0-3.7 6.4-3.7 10.184v2.923h-4.495v-10.154c0-1.5-.3-2.1-.9-2.075-.88 0-1.8 1.7-2.2 2.452l-.724-.66c1.069-2.3 2.2-4.6 5.9-4.558 1.886 0 2.4 2.1 2.5 3.772l.313.031c.629-2.4 1.8-3.8 4.6-3.803 1.98 0 3.6 1.3 4.1 3.238.252 1 .3 1.8.2 2.797l-.472 5.501c-.062 1 .3 1.8 1.3 1.823 1.226 0 1.7-2.1 2.2-3.426l.942.471c-.817 2.3-2.1 5.1-5.1 5.062zm19.959 0c-1.572 0-3-1.1-3.3-3.363-1.037 2.2-2.4 3.4-4.5 3.363-3.835 0-6.3-3.2-6.3-7.733 0-5.5 3.9-7.7 6.1-7.732 1.823 0 3 .7 4.3 2.483v-2.138h4.274v6.475c0 2.5-.1 6.7.9 6.664.691 0 1.6-2.3 1.8-2.892l.975.534c-.912 2.2-1.5 4.3-4.4 4.339zm-6.602-13.957c-1.98 0-2.5 3.3-2.6 5.878-.095 2.8.3 6.8 2.6 6.758 2.357 0 2.9-3.9 2.8-6.758-.095-2.7-.2-5.9-2.8-5.878zM65.843 50.024s-.9-.7-3-.662c-1.091 0-1.8.2-2.3.351.156 1.5.2 3 .2 4.168 0 .8 0 1.4-.1 2.064.507-.1 1.1-.2 1.7-.155 2.844 0 4 1.1 4 1.129l-1.948 2.182s-.6-.4-2.1-.39c-1.091 0-1.8.3-2.1.429-.117 1.1-.3 2.3-.3 4.168 0 2.3 0 5.5.3 8.181l-2.883.312c-.272-2.9-.4-6.2-.4-8.493 0-4.1.7-5.1.7-9.427 0-1.6-.1-3.8-.4-5.648 0 0 1.5-1.8 5.3-1.792 3.623 0 5 1.5 5 1.48l-2.026 2.103zm8.493 21.893c-1.753-.4-5.1-.1-5.1-.116-.272-2.9-.4-6.2-.4-8.493 0-4.1.7-5.1.7-9.427 0-1.6 0-5.1-.4-6.934l2.883-.468c.312 2 .4 5.7.4 7.401 0 4.3-.7 5.3-.7 9.427 0 1.6 0 3.6.1 5.61.936 0 2.1-.1 3 .116 1.402.3 3.6 0 3.6 0l.39 2.883c.001 0-2.7.4-4.5.001zm13.763-1.636c-.818 1.3-2 2.1-3.3 2.143-1.441 0-2.8-1-3.7-2.649-1.441-2.5-2.1-7.1-2-10.206.117-4.3.5-9.6 2.3-12.037.856-1.2 2.1-1.8 3.6-1.831 1.285 0 2.4.6 3.2 1.909 1.636 2.5 2.1 7.8 2.1 11.998.077 3.5-.7 8.3-2.2 10.673zm-2.416-21.075c-.233-.4-.4-.6-.8-.584-.546 0-.9.2-1.2.623-1.597 2.1-1.7 6.7-1.8 10.401-.039 2.7.4 6.5 1.7 8.687.351.6.7 1.2 1.2 1.169.351 0 .6-.4.8-.74 1.246-2.1 1.8-6.1 1.8-9.154-.039-3.6-.4-8.3-1.7-10.402zm14.025 23.218c-.701-1.4-1.5-3.1-1.9-4.285-.857-2.1-.7-2.6-1.6-4.714-.194-.5-.5-1.4-.9-2.143-.117 0-.2 0-.4.078-.039.6-.1 1.2-.1 1.947 0 2.3 0 5.5.3 8.181l-2.883.312c-.272-2.9-.4-6.2-.4-8.493 0-4.1.7-5.1.7-9.427 0-1.6 0-4.3-.7-8.336 5.727 1.3 9.9 3.9 9.9 8.103 0 3.3-1.8 5.3-3.8 6.544.351.8.7 1.6.9 2.143.896 2.1.7 2.6 1.6 4.675.468 1.2 1.2 2.7 1.9 4.091l-2.648 1.324zm-4.323-22.867c.116 1.6.2 3.2.2 4.324 0 1.9-.2 3.2-.3 4.363 1.753-.6 3.6-1.9 3.6-4.597 0-2.1-1.6-3.3-3.5-4.09zm16.596.467s-.9-.7-3-.662c-1.091 0-1.8.2-2.3.351.155 1.5.2 3 .2 4.168 0 .8 0 1.4-.1 2.064.507-.1 1.1-.2 1.7-.155 2.844 0 4 1.1 4 1.129l-1.947 2.182s-.6-.4-2.1-.39c-1.091 0-1.8.3-2.1.429-.116 1.1-.3 2.3-.3 4.168 0 1.6 0 3.5.1 5.493 1.013 0 2.3 0 3.3.194 1.402.4 3.7 0 3.7-.038l.468 2.882s-3 .4-4.8-.038c-1.52-.4-5.3 0-5.3 0-.272-2.9-.4-6.2-.4-8.493 0-4.1.7-5.1.7-9.427 0-1.6-.1-3.8-.4-5.648 0 0 1.7-1.8 5.3-1.792s5.025 1.5 5 1.48l-2.025 2.103zm14.959 13.284c0 2.3 0 5.4.3 8.181l-2.882.312c-.312-2.8-.4-6.2-.4-8.493 0-1.4.1-2.5.2-3.389-.935-1-3-3.3-4-5.609-.233-.5-.6-1.2-1.1-1.909.039.6 0 1.1 0 1.48 0 4.3-.7 5.3-.7 9.427 0 2.3 0 5.5.3 8.181l-2.883.312c-.272-2.9-.4-6.2-.4-8.493 0-4.1.7-5.1.7-9.427 0-1.6-.1-5.1-.4-6.973l2.728-.351s3.4 4.8 4.2 6.544c.467 1 1.1 2 1.8 2.883.039-.6.1-1.3.1-2.104 0-1.6-.1-5.1-.4-6.973l2.882-.39c.273 2 .4 5.6.4 7.362.001 4.3-.7 5.3-.7 9.429zm12.193-13.127s-.9-.6-2.7-.896c.117 1.7.2 3.5.2 4.597 0 4.3-.7 5.3-.7 9.427 0 2.3 0 5.5.3 8.181l-2.883.312c-.272-2.9-.4-6.2-.4-8.493 0-4.1.7-5.1.7-9.427 0-1.1 0-3-.2-4.636-2.064.2-3.1.9-3.1.936l-1.792-2.26s2-1.7 6.2-1.675c4.168 0 6.2 1.7 6.2 1.675l-1.791 2.259zM53.952 58.889c-3.963-.3-3.4 2.1-4.5 3.889l-3.148 4.962c.371.7 1.1 1.3 1.7 2.223.889 1.4 1.7 2.9 1.7 3.999 0 2.5-1.3 3.8-2.9 5.666l-1.111-.852c.963-1.2 1.1-2.5-.2-4.444-.963-1.4-1.4-1.6-3-3.666-1.667 1.7-3.8 2.3-6.3 2.333-3.889 0-9.4-2.8-9.4-7.443 0-5.1 2-7.1 6-8.555-.852-1.6-1.4-3-1.8-4.37-.593-2.3-.5-4.1.8-5.592 1.37-1.5 3.2-1.7 5.4-1.74 3.11 0 6.9 1.5 7.7 4.999.481 1.9-.6 3-2.3 3-1.889 0-2.8-.8-3.1-2.222-.296-1.1.2-1.8.8-2.37 1.111-1.2-.8-2-1.9-2.037-2.962 0-3 2.9-2.5 4.48.37 1.4.9 2.6 1.7 4.074 1.814 3.5 4.9 8 7.4 11.221 1.074-1.6 4.6-6.1 2.4-7.222-.444-.2-.4-.2-1-.185-.852 0-1.3.1-1.5.852l-.2 1.11-.926-.259c.148-2.8 1.3-5.5 4.4-5.518 2.037 0 3.9 1.7 5.4 1.74 1.074 0 0-1.7 1.2-1.74.37 0 .8.3.9.889.336 1.3-.6 2.9-1.9 2.778zm-20.516-.445c-1.926 1.1-2.1 3.1-2.1 5.555 0 3.3 3.4 6.5 6.9 6.48 1.111 0 2-.3 3-.963-3.148-3.4-5.5-7.2-7.8-11.072zM54.141 80.485c-.644 0-1.5-.2-1.9-.746-.235-.3-.2-.9.2-1.053l.8-1.534c-.419-.4-.8-1-.5-1.595.256-.4 1.2-.6 1.5-.245.266.3.2.8 0 1.124.337 1 1.8 1.5 1.8 2.546 0 1-.9 1.5-1.9 1.503zm-.664-3.067c-.379.7-.6 1.1-.7 1.237.327.1.6.4.6.583.082.4-.3.5-.2.726.103.1.6.2.8.164.419 0 .8-.3.8-.747 0-.8-1-.9-1.4-1.963zm5.388 3.067c-1.217 0-1.4-1-1.4-1.759l.041-1.778c0-.5-.1-.7-.3-.665s-.542.6-.7.798l-.235-.225c.348-.7.6-1.4 1.8-1.36.613 0 .9.7.9 1.217v2.372c0 .2 0 .8.3.787.368 0 .8-.8.9-1.176l.277.174c-.276.7-.7 1.6-1.6 1.615zm-.644-6.072c-.44 0-.8-.4-.8-.808 0-.5.4-.8.8-.808.439 0 .8.4.8.808 0 .4-.4.8-.8.808zm7.79 6.072c-1.043 0-1.3-1-1.2-1.799l.133-1.851c.021-.3 0-.8-.4-.767-.961 0-1.2 2.1-1.2 3.312v.951h-1.462v-3.301c0-.5-.1-.7-.3-.675-.286 0-.6.6-.7.797l-.234-.215c.348-.7.7-1.5 1.9-1.482.613 0 .8.7.8 1.228l.103.01c.204-.8.6-1.2 1.5-1.237.644 0 1.2.4 1.3 1.054.082.3.1.6.1.909l-.153 1.789c-.021.3.1.6.4.594.399 0 .6-.7.7-1.114l.307.153c-.266.7-.7 1.6-1.6 1.644zm4.366 0c-1.146 0-2.5-1-2.5-2.546.052-1.7 1.4-2.5 2.6-2.484.859 0 1.6.4 1.9 1.36.133.5-.2.8-.6.828-.521 0-.8-.2-.9-.613-.081-.3.1-.5.2-.654.307-.3-.2-.6-.4-.562-.818 0-1.1 1.2-1.1 2.146-.021 1.2.4 2 1.3 2.045.624 0 1-.5 1.3-1.032l.338.225c-.43.7-1 1.3-2.1 1.287zm5.623 0c-1.217 0-2.6-.6-2.6-2.352 0-1.8.9-2.7 2.6-2.679.777 0 1.9.5 1.9 1.432 0 1.3-1.8 1.6-2.9 1.605v.266c0 .7.6 1.2 1.3 1.247.594 0 1-.4 1.3-.808l.307.266c-.409.7-1.1 1-1.9 1.023zm-.245-4.672c-.777 0-.8 1.5-.8 2.3.593 0 1.7-.2 1.7-1.38 0-.6-.3-.9-.8-.92zm9.815 4.519h-3.69c-.082 0-.1 0-.1-.103v-.153c0-.1.1-.1.1-.112.644 0 1.1-.1 1.1-.776v-2.25c0-.5-.4-.7-.7-.675h-.603c-.092 0-.1 0-.1-.112l-.01-.153c0-.1 0-.1.1-.122.89-.1 1.7-.2 2.4-.747h.256c.071 0 .1 0 .1.082v4.018c0 .5.4.7.8.727h.419c.093 0 .1 0 .1.112v.153c0 .1 0 .1-.1.111zm2.985 2.096c-.757 0-1.7-.4-1.9-1.196-.092-.5.2-.8.6-.838.419 0 .8.3.9.705.041.2 0 .4-.1.501-.092.2.1.5.3.521 1.35 0 1.5-1.6 1.5-2.607 0-.1 0-.1-.1-.102-.245.1-.5.1-.7.143-1.063 0-2.4-.6-2.4-2.259s1.278-2.2 2.3-2.229c1.033 0 2.5 1 2.5 3.281 0 1.9-.6 4.1-2.9 4.08zm.378-6.983c-.868 0-.9 1.2-.9 1.84 0 .6 0 1.9.9 1.861.869 0 .9-1.2.9-1.861 0-.6-.3-1.8-.9-1.84zm5.491 6.983c-.757 0-1.7-.4-1.9-1.196-.092-.5.2-.8.6-.838.419 0 .8.3.9.705.041.2 0 .4-.1.501-.092.2.1.5.3.521 1.35 0 1.5-1.6 1.5-2.607 0-.1 0-.1-.1-.102-.245.1-.5.1-.7.143-1.063 0-2.4-.6-2.4-2.259s1.278-2.2 2.3-2.229c1.033 0 2.5 1 2.5 3.281 0 1.9-.6 4.1-2.9 4.08zm.378-6.983c-.868 0-.9 1.2-.9 1.84 0 .6 0 1.9.9 1.861.869 0 .9-1.2.9-1.861 0-.6-.3-1.8-.9-1.84zM101.723 78.799c-.348.9-.4 1.8-.4 2.801.011.7 0 1.3-.8 1.309-.459 0-.9-.3-1-.787-.092-.9.5-1.6 1.1-2.566l1.493-2.617h-2.475c-.746 0-.9.2-1.1.716l-.204.552-.286-.102.562-2.454c.01-.1 0-.1.1-.081 0 0 1.3.1 1.8.092.808 0 2.3-.1 2.3-.113.215 0 .1.2.1.317l-1.143 2.933z" fill="#fff"/></svg>